<svg width="100%" height="359" viewBox="0 0 516 359" fill="none" xmlns="http://www.w3.org/2000/svg">
<path d="M102.81 359C159.59 359 205.619 355.504 205.619 351.192C205.619 346.879 159.59 343.384 102.81 343.384C46.0294 343.384 0 346.879 0 351.192C0 355.504 46.0294 359 102.81 359Z" fill="#D4D9E5"/>
<path d="M78.5858 79.6558C96.4777 72.0459 118.762 76.8674 140.526 80.2138C140.728 76.1613 143.183 71.2293 140.612 68.4021C137.488 64.9673 137.775 61.3583 139.655 57.7285C144.462 48.4466 137.575 38.5701 130.621 30.3579C129.053 28.5111 127.072 27.06 124.839 26.1226C122.605 25.1851 120.182 24.7877 117.766 24.9626L104.884 25.8828C101.749 26.1067 98.7577 27.2825 96.3095 29.2531C93.8614 31.2236 92.0734 33.8948 91.185 36.9093C88.109 41.0926 86.4626 45.2643 87.4992 49.4144C82.8918 52.5629 82.1178 56.3635 84.1881 60.6479C85.9437 63.3456 85.925 65.9715 84.1082 68.5248C81.7223 71.78 79.8949 75.4097 78.7009 79.265L78.5858 79.6558Z" fill="#2F2E41"/>
<path d="M503.773 310.35H139.113C135.87 310.35 132.76 309.062 130.467 306.769C128.173 304.476 126.885 301.366 126.885 298.123C259.075 282.76 388.779 282.76 516 298.123C516 301.366 514.712 304.476 512.419 306.769C510.126 309.062 507.016 310.35 503.773 310.35Z" fill="#2F2E41"/>
<path d="M516 298.842L126.885 298.123L171.982 222.244L172.198 221.884V54.6547C172.198 52.6249 172.598 50.6149 173.374 48.7396C174.151 46.8642 175.29 45.1603 176.725 43.725C178.16 42.2897 179.864 41.1512 181.74 40.3745C183.615 39.5978 185.625 39.1981 187.655 39.1983H453.073C455.103 39.1981 457.113 39.5978 458.988 40.3745C460.863 41.1512 462.567 42.2897 464.003 43.725C465.438 45.1603 466.576 46.8642 467.353 48.7396C468.13 50.6149 468.53 52.6249 468.529 54.6547V223.035L516 298.842Z" fill="#3F3D56"/>
<path d="M187.302 49.9868C185.967 49.9883 184.688 50.5192 183.744 51.4631C182.8 52.4069 182.269 53.6866 182.268 55.0215V207.499C182.269 208.834 182.8 210.114 183.744 211.058C184.688 212.001 185.968 212.532 187.302 212.534H455.583C456.918 212.532 458.197 212.001 459.141 211.057C460.085 210.114 460.616 208.834 460.618 207.499V55.0215C460.616 53.6867 460.085 52.407 459.141 51.4632C458.198 50.5193 456.918 49.9884 455.583 49.9868H187.302Z" fill="white"/>
<path d="M188.426 232.672C188.014 232.673 187.61 232.792 187.263 233.014C186.916 233.237 186.639 233.554 186.466 233.928L172.57 264.136C172.419 264.465 172.353 264.826 172.378 265.187C172.403 265.548 172.518 265.897 172.714 266.202C172.909 266.507 173.177 266.757 173.495 266.931C173.812 267.105 174.168 267.196 174.53 267.196H466.752C467.119 267.196 467.481 267.102 467.802 266.923C468.124 266.743 468.394 266.485 468.587 266.172C468.78 265.859 468.891 265.502 468.907 265.135C468.923 264.767 468.846 264.402 468.681 264.073L453.577 233.865C453.399 233.506 453.123 233.204 452.782 232.993C452.441 232.782 452.048 232.671 451.647 232.672H188.426Z" fill="#2F2E41"/>
<path d="M320.364 47.4695C322.151 47.4695 323.6 46.0205 323.6 44.233C323.6 42.4455 322.151 40.9964 320.364 40.9964C318.576 40.9964 317.127 42.4455 317.127 44.233C317.127 46.0205 318.576 47.4695 320.364 47.4695Z" fill="white"/>
<path d="M291.641 272.949C291.166 272.95 290.706 273.107 290.329 273.395C289.953 273.684 289.681 274.088 289.558 274.546L286.072 287.492C285.986 287.812 285.974 288.147 286.039 288.472C286.103 288.797 286.241 289.103 286.443 289.366C286.644 289.629 286.903 289.842 287.2 289.988C287.497 290.135 287.824 290.211 288.155 290.211H354.444C354.788 290.211 355.127 290.129 355.433 289.971C355.738 289.814 356.002 289.585 356.201 289.305C356.401 289.025 356.53 288.701 356.579 288.36C356.628 288.02 356.595 287.673 356.482 287.348L352.001 274.401C351.854 273.977 351.579 273.61 351.213 273.35C350.848 273.09 350.411 272.95 349.962 272.949H291.641Z" fill="#2F2E41"/>
<path d="M468.529 219.367V222.243H171.982L172.205 221.884V219.367H468.529Z" fill="#2F2E41"/>
<path d="M460.258 100.693C488.064 100.693 510.606 78.152 510.606 50.3464C510.606 22.5409 488.064 0 460.258 0C432.452 0 409.911 22.5409 409.911 50.3464C409.911 78.152 432.452 100.693 460.258 100.693Z" fill="#3655C7"/>
<path d="M481.116 72.2831H439.4C438.637 72.2824 437.906 71.979 437.366 71.4397C436.827 70.9003 436.524 70.169 436.523 69.4062V44.233C436.524 43.4702 436.827 42.7389 437.366 42.1995C437.906 41.6602 438.637 41.3568 439.4 41.356H481.116C481.879 41.3568 482.61 41.6602 483.15 42.1995C483.689 42.7389 483.993 43.4702 483.993 44.233V69.4062C483.993 70.1689 483.689 70.9003 483.15 71.4397C482.61 71.979 481.879 72.2824 481.116 72.2831ZM439.4 44.233V69.4062H481.118L481.116 44.233L439.4 44.233Z" fill="white"/>
<path d="M473.205 44.2329H447.312V32.7252C447.312 24.39 452.756 18.3405 460.258 18.3405C467.76 18.3405 473.205 24.39 473.205 32.7252L473.205 44.2329ZM450.189 41.356H470.328V32.7252C470.328 25.9496 466.187 21.2174 460.258 21.2174C454.329 21.2174 450.189 25.9497 450.189 32.7252L450.189 41.356Z" fill="white"/>
<path d="M460.258 58.9773C461.847 58.9773 463.135 57.6892 463.135 56.1003C463.135 54.5114 461.847 53.2234 460.258 53.2234C458.669 53.2234 457.381 54.5114 457.381 56.1003C457.381 57.6892 458.669 58.9773 460.258 58.9773Z" fill="white"/>
<path d="M425.111 160.815H217.774C216.756 160.814 215.78 160.409 215.061 159.689C214.341 158.969 213.936 157.993 213.935 156.975V105.545C213.936 104.527 214.341 103.551 215.061 102.832C215.78 102.112 216.756 101.707 217.774 101.706H425.111C426.129 101.707 427.105 102.112 427.825 102.832C428.545 103.551 428.949 104.527 428.951 105.545V156.975C428.949 157.993 428.545 158.969 427.825 159.689C427.105 160.409 426.129 160.814 425.111 160.815ZM217.774 103.241C217.163 103.242 216.578 103.485 216.146 103.917C215.714 104.349 215.471 104.934 215.47 105.545V156.975C215.471 157.586 215.714 158.172 216.146 158.604C216.578 159.036 217.163 159.278 217.774 159.279H425.111C425.722 159.278 426.307 159.036 426.739 158.604C427.171 158.172 427.414 157.586 427.415 156.975V105.545C427.414 104.934 427.171 104.349 426.739 103.917C426.307 103.485 425.722 103.242 425.111 103.241L217.774 103.241Z" fill="#D4D9E5"/>
<path d="M249.99 144.927C258.628 144.927 265.63 137.925 265.63 129.287C265.63 120.649 258.628 113.647 249.99 113.647C241.352 113.647 234.35 120.649 234.35 129.287C234.35 137.925 241.352 144.927 249.99 144.927Z" fill="#D4D9E5"/>
<path d="M286.112 118.86C285.769 118.86 285.43 118.927 285.113 119.057C284.796 119.188 284.508 119.38 284.266 119.622C284.023 119.864 283.831 120.152 283.7 120.468C283.569 120.785 283.501 121.124 283.501 121.467C283.501 121.81 283.569 122.149 283.7 122.465C283.831 122.782 284.023 123.069 284.266 123.312C284.508 123.554 284.796 123.746 285.113 123.876C285.43 124.007 285.769 124.074 286.112 124.074H409C409.692 124.074 410.355 123.799 410.844 123.31C411.332 122.821 411.607 122.158 411.607 121.467C411.607 120.776 411.332 120.113 410.844 119.624C410.355 119.135 409.692 118.86 409 118.86H286.112Z" fill="#D4D9E5"/>
<path d="M286.112 134.5C285.421 134.5 284.758 134.775 284.269 135.264C283.78 135.753 283.505 136.416 283.505 137.107C283.505 137.798 283.78 138.461 284.269 138.95C284.758 139.439 285.421 139.714 286.112 139.714H338.991C339.682 139.714 340.345 139.439 340.834 138.95C341.323 138.461 341.598 137.798 341.598 137.107C341.598 136.416 341.323 135.753 340.834 135.264C340.345 134.775 339.682 134.5 338.991 134.5H286.112Z" fill="#D4D9E5"/>
<path d="M171.472 135.555L133.144 155.931L132.659 138.951C145.169 136.862 157.071 133.227 168.076 127.307L172.085 117.404C172.521 116.325 173.231 115.378 174.145 114.656C175.058 113.934 176.143 113.462 177.294 113.286C178.445 113.11 179.622 113.237 180.709 113.653C181.796 114.07 182.756 114.762 183.495 115.661C184.577 116.978 185.117 118.655 185.007 120.355C184.897 122.055 184.146 123.649 182.904 124.816L171.472 135.555Z" fill="#FFB8B8"/>
<path d="M77.8218 253.201C77.5421 252.175 77.4828 251.102 77.6476 250.052C77.8123 249.002 78.1975 247.999 78.7778 247.108L87.1973 234.187C89.1888 231.131 92.2444 228.924 95.7715 227.993C99.2986 227.063 103.046 227.475 106.285 229.151C102.747 235.174 103.24 240.458 107.508 245.05C100.883 248.284 94.7606 252.457 89.3297 257.442C88.3382 258.118 87.1996 258.547 86.0087 258.694C84.8177 258.841 83.609 258.701 82.4831 258.286C81.3572 257.871 80.3468 257.193 79.5359 256.308C78.7251 255.424 78.1374 254.358 77.8218 253.201Z" fill="#2F2E41"/>
<path d="M173.218 236.306C171.944 238.429 170.145 240.19 167.995 241.418C165.845 242.646 163.415 243.301 160.939 243.32L105.005 243.743L102.579 229.674L127.322 222.397L106.46 206.387L129.263 179.703L170.68 218.305C173.1 220.561 174.673 223.579 175.135 226.856C175.597 230.133 174.92 233.469 173.218 236.306Z" fill="#2F2E41"/>
<path d="M96.2719 332.526H83.1725C71.4111 251.909 59.4392 171.066 94.8164 140.891L136.54 147.683L131.204 183.1L107.916 209.783L96.2719 332.526Z" fill="#2F2E41"/>
<path d="M107.787 350.789C106.761 351.068 105.688 351.128 104.638 350.963C103.588 350.798 102.585 350.413 101.694 349.833L87.4711 347.921C84.4148 345.93 82.2071 342.875 81.2763 339.348C80.3456 335.821 80.7582 332.074 82.4341 328.834C88.4574 332.372 93.7412 331.878 98.3328 327.611C101.577 334.161 106.923 333.762 112.028 339.281C112.704 340.272 113.133 341.411 113.28 342.602C113.427 343.792 113.287 345.001 112.872 346.127C112.457 347.253 111.779 348.263 110.894 349.074C110.01 349.885 108.945 350.473 107.787 350.789Z" fill="#2F2E41"/>
<path d="M127.322 87.0396L103.064 81.2177C107.093 72.9711 107.425 63.795 105.49 54.0492L121.985 53.5641C122.502 65.6832 124.066 77.0056 127.322 87.0396Z" fill="#FFB8B8"/>
<path d="M133.989 162.291C116.33 174.324 103.853 162.703 94.3312 144.773C95.6543 133.801 93.512 120.671 89.5443 106.404C87.7797 100.112 88.4385 93.3864 91.3906 87.5558C94.3427 81.7252 99.3735 77.2133 105.49 74.9108L126.352 83.6435C144.066 98.0823 147.553 113.722 140.907 130.218L133.989 162.291Z" fill="#3655C7"/>
<path d="M83.1724 99.1684L63.7659 109.357L98.2125 129.733L103.005 141.555C103.325 142.345 103.481 143.191 103.464 144.042C103.446 144.893 103.255 145.732 102.902 146.507C102.55 147.282 102.043 147.977 101.413 148.55C100.783 149.123 100.043 149.562 99.2385 149.839C98.3234 150.155 97.3478 150.254 96.3879 150.13C95.428 150.005 94.51 149.66 93.7057 149.122C92.9014 148.583 92.2327 147.866 91.7519 147.026C91.2712 146.186 90.9914 145.246 90.9346 144.28L90.4499 136.04L46.6688 121.592C45.1937 121.106 43.8487 120.29 42.7357 119.206C41.6227 118.123 40.7708 116.8 40.2447 115.338C39.4777 113.208 39.4387 110.884 40.1337 108.729C40.8287 106.574 42.2184 104.71 44.0855 103.429L79.2912 79.2772L83.1724 99.1684Z" fill="#FFB8B8"/>
<path d="M102.579 101.109C94.4852 97.5621 87.1254 101.415 77.8357 104.505L76.3802 78.792C85.6045 73.8757 94.3993 72.5502 102.579 76.3663L102.579 101.109Z" fill="#3655C7"/>
<path d="M112.261 66.3007C120.815 66.3007 127.749 59.3667 127.749 50.8132C127.749 42.2596 120.815 35.3256 112.261 35.3256C103.707 35.3256 96.773 42.2596 96.773 50.8132C96.773 59.3667 103.707 66.3007 112.261 66.3007Z" fill="#FFB8B8"/>
<path d="M130.789 48.859C115.455 50.3609 103.77 47.853 96.3027 40.7125V34.962H129.488L130.789 48.859Z" fill="#2F2E41"/>
</svg>